<svg fill="none" viewBox="0 0 22 20" xmlns="http://www.w3.org/2000/svg">
  <g clip-path="url(#a)">
    <path d="m19.916 5.2251c-0.9141-1.5321-2.154-2.7451-3.72-3.6393-1.5662-0.89418-3.2761-1.3412-5.1309-1.3412-1.8544 0-3.5649 0.44711-5.1308 1.3412-1.5662 0.89408-2.806 2.1071-3.7201 3.6393-0.91393 1.5321-1.3709 3.2052-1.3709 5.0192 0 2.179 0.64985 4.1384 1.9499 5.8787 1.2999 1.7405 2.9791 2.9448 5.0376 3.6131 0.23962 0.0436 0.417 0.013 0.53233-0.091 0.11538-0.1041 0.173-0.2344 0.173-0.3904 0-0.0261-0.00229-0.2604-0.00672-0.7031-0.00456-0.4428-0.00671-0.8291-0.00671-1.1587l-0.30614 0.0518c-0.19518 0.035-0.44142 0.0498-0.7387 0.0456-0.29714-4e-3 -0.60561-0.0345-0.92498-0.0911-0.31952-0.0562-0.6167-0.1864-0.8918-0.3904-0.27495-0.204-0.47013-0.471-0.58551-0.8006l-0.13309-0.2996c-0.08872-0.1995-0.22838-0.4211-0.41919-0.664-0.1908-0.2431-0.38375-0.4079-0.57894-0.4947l-0.09319-0.0653c-0.06209-0.0433-0.11971-0.0957-0.173-0.1564-0.05324-0.0607-0.09309-0.1214-0.11971-0.1822-0.02667-0.0609-0.00457-0.1109 0.06652-0.15 0.07109-0.0392 0.19957-0.0582 0.38599-0.0582l0.2661 0.0389c0.17747 0.0348 0.39699 0.1387 0.65884 0.3124 0.26171 0.1736 0.47685 0.3992 0.64547 0.6769 0.20418 0.356 0.45018 0.6272 0.7387 0.8139 0.28828 0.1867 0.57894 0.2798 0.8717 0.2798s0.54561-0.0217 0.75865-0.0649c0.21281-0.0434 0.41248-0.1086 0.5989-0.1954 0.07986-0.5818 0.29728-1.0288 0.65209-1.3412-0.50571-0.052-0.96037-0.1303-1.3642-0.2344-0.40361-0.1043-0.8207-0.2735-1.251-0.5081-0.43051-0.2342-0.78765-0.5252-1.0715-0.8722-0.2839-0.3472-0.5169-0.8031-0.69866-1.3672-0.18186-0.5643-0.27281-1.2153-0.27281-1.9531 0-1.0505 0.35057-1.9445 1.0516-2.6824-0.32837-0.78978-0.29737-1.6752 0.0931-2.656 0.25733-0.07821 0.63894-0.01952 1.1446 0.17572 0.5058 0.19532 0.87613 0.36265 1.1114 0.50138 0.23523 0.13868 0.42371 0.25621 0.5657 0.35152 0.82537-0.22561 1.6771-0.33843 2.5555-0.33843 0.8783 0 1.7303 0.11282 2.5557 0.33843l0.5057-0.31235c0.3459-0.20841 0.7543-0.3994 1.2243-0.57302 0.4703-0.17353 0.8299-0.22132 1.0784-0.14311 0.3992 0.98092 0.4347 1.8662 0.1063 2.656 0.7009 0.73789 1.0516 1.6321 1.0516 2.6824 0 0.73784-0.0913 1.3908-0.2728 1.9594-0.1818 0.5688-0.4168 1.0242-0.7051 1.3672-0.2886 0.343-0.648 0.6316-1.0783 0.8659-0.4304 0.2344-0.8476 0.4036-1.2512 0.5078-0.4038 0.1043-0.8585 0.1826-1.3642 0.2347 0.4612 0.3905 0.6919 1.0068 0.6919 1.8488v2.7471c0 0.156 0.0555 0.2863 0.1665 0.3905 0.1109 0.1039 0.286 0.1345 0.5257 0.0909 2.0587-0.6682 3.738-1.8726 5.0378-3.6131 1.2997-1.7403 1.9498-3.6997 1.9498-5.8787-5e-4 -1.8138-0.4577-3.4867-1.3712-5.0188z" fill="#000"/>
  </g>
  <defs>
    <clipPath id="a">
      <rect x=".84277" width="20.444" height="20" fill="#fff" />
    </clipPath>
  </defs>
</svg>