<svg fill="none" viewBox="0 0 21 20" xmlns="http://www.w3.org/2000/svg">
  <g clip-path="url(#a)" fill="#000">
    <path d="m15.171 0h-9.376c-3.0515 0-5.534 2.4286-5.534 5.4138v9.1725c0 2.9851 2.4825 5.4137 5.534 5.4137h9.3762c3.0513 0 5.5339-2.4286 5.5339-5.4137v-9.1725c0-2.9852-2.4826-5.4138-5.5341-5.4138zm4.3355 14.586c0 2.3386-1.9448 4.2412-4.3355 4.2412h-9.376c-2.3906 0-4.3355-1.9026-4.3355-4.2412v-9.1725c0-2.3387 1.9449-4.2413 4.3355-4.2413h9.3762c2.3905 0 4.3353 1.9026 4.3353 4.2413v9.1725z"/>
    <path d="m10.483 4.5314c-3.0824 0-5.59 2.4532-5.59 5.4686s2.5076 5.4685 5.59 5.4685c3.0824 0 5.59-2.4531 5.59-5.4685s-2.5076-5.4686-5.59-5.4686zm0 9.7647c-2.4214 0-4.3915-1.9272-4.3915-4.2961 0-2.3688 1.9701-4.2961 4.3915-4.2961 2.4215 0 4.3915 1.9273 4.3915 4.2961 0 2.3689-1.97 4.2961-4.3915 4.2961z"/>
    <path d="m16.207 2.5892c-0.9109 0-1.6518 0.72495-1.6518 1.6159 0 0.89111 0.7409 1.616 1.6518 1.616s1.6519-0.72494 1.6519-1.616c0-0.89112-0.741-1.6159-1.6519-1.6159zm0 2.0593c-0.2499 0-0.4533-0.19898-0.4533-0.44342 0-0.2446 0.2034-0.44342 0.4533-0.44342 0.25 0 0.4534 0.19882 0.4534 0.44342 0 0.24444-0.2034 0.44342-0.4534 0.44342z"/>
  </g>
  <defs>
    <clipPath id="a">
      <rect x=".26123" width="20.444" height="20" fill="#fff" />
    </clipPath>
  </defs>
</svg>