<svg fill="none" viewBox="0 0 21 20" xmlns="http://www.w3.org/2000/svg">
  <g clip-path="url(#a)">
    <path d="m10.597 0c-5.6446 0-10.222 4.478-10.222 10s4.5774 10 10.222 10c5.6446 0 10.222-4.478 10.222-10s-4.5774-10-10.222-10zm-2.9704 15.117h-2.4895v-7.3271h2.4895v7.3271zm-1.2447-8.3276h-0.01622c-0.83541 0-1.3757-0.56259-1.3757-1.2657 0-0.71899 0.55683-1.266 1.4084-1.266 0.85163 0 1.3757 0.54703 1.3919 1.266 0 0.70313-0.5403 1.2657-1.4085 1.2657zm10.221 8.3276h-2.4892v-3.9198c0-0.9852-0.3605-1.657-1.2612-1.657-0.6877 0-1.0973 0.45318-1.2773 0.89069-0.0658 0.1565-0.0819 0.3753-0.0819 0.5943v4.0918h-2.4894s0.0326-6.6397 0-7.3271h2.4894v1.0374c0.3308-0.49926 0.9228-1.2094 2.2436-1.2094 1.6379 0 2.866 1.0472 2.866 3.2977v4.2014z" fill="#000"/>
  </g>
  <defs>
    <clipPath id="a">
      <rect x=".375" width="20.444" height="20" fill="#fff" />
    </clipPath>
  </defs>
</svg>