<svg fill="none" viewBox="0 0 22 20" xmlns="http://www.w3.org/2000/svg">
  <g clip-path="url(#clip0)">
    <path d="M21.3064 4.02205C20.0204 4.08003 20.0484 4.0753 19.9031 4.0872L20.6647 1.95937C20.6647 1.95937 18.2873 2.81493 17.6846 2.96797C16.1018 1.57622 13.749 1.51473 12.067 2.52608C10.6896 3.35448 9.95024 4.77705 10.1968 6.4398C7.51608 6.07588 5.25739 4.83275 3.47412 2.73711L2.91011 2.07442L2.48867 2.83156C1.95601 3.78829 1.77913 4.88219 1.99048 5.9117C2.0772 6.33406 2.2246 6.73689 2.42877 7.11409L1.94493 6.93068L1.88753 7.72154C1.82936 8.52492 2.10278 9.46272 2.61906 10.2299C2.76443 10.446 2.9516 10.6833 3.18884 10.9173L2.93881 10.8798L3.2439 11.786C3.64491 12.9767 4.47783 13.8978 5.55874 14.4099C4.47923 14.8581 3.60717 15.144 2.17375 15.6053L0.862305 16.0271L2.07361 16.6749C2.53546 16.922 4.16743 17.747 5.77991 17.9945C9.36424 18.5444 13.3998 18.0966 16.1166 15.703C18.4049 13.6868 19.1558 10.8189 18.9998 7.83446C18.9763 7.38265 19.1028 6.95143 19.3561 6.62047C19.8634 5.95778 21.3033 4.02647 21.3064 4.02205ZM18.3982 5.91856C17.9775 6.46803 17.7668 7.16979 17.8046 7.89427C17.9619 10.9047 17.1247 13.2393 15.3158 14.8329C13.2028 16.6946 9.79458 17.4254 5.96537 16.8378C5.2719 16.7314 4.55519 16.4932 3.96201 16.2553C5.16381 15.8508 6.09187 15.4902 7.59064 14.7963L9.6829 13.8275L7.3729 13.6828C6.2664 13.6136 5.34505 13.089 4.7787 12.2372C5.07943 12.2201 5.36938 12.1725 5.6581 12.0938L7.86126 11.4935L5.63969 10.9613C4.56018 10.7027 3.94486 10.0708 3.61871 9.58617C3.40456 9.26772 3.26465 8.94148 3.18073 8.64073C3.40346 8.69917 3.66316 8.74083 4.08196 8.78142L6.13819 8.98039L4.50902 7.73711C3.33515 6.84142 2.86472 5.49574 3.20959 4.2021C6.87315 7.91945 11.1747 7.64006 11.6076 7.73833C11.5123 6.83272 11.5098 6.83058 11.4849 6.74437C10.9304 4.8268 12.1456 3.85313 12.6937 3.52354C13.8386 2.83522 15.6558 2.73146 16.9146 3.86549C17.1864 4.11025 17.5541 4.20653 17.8981 4.12291C18.207 4.04784 18.4604 3.96834 18.7086 3.88182L18.192 5.325L18.8515 5.32546C18.727 5.48872 18.5777 5.68419 18.3982 5.91856Z" fill="black"/>
  </g>
  <defs>
    <clipPath id="clip0">
      <rect x="0.862305" width="20.4441" height="20" fill="white" />
    </clipPath>
  </defs>
</svg>