<svg fill="none" viewBox="0 0 364 756" xmlns="http://www.w3.org/2000/svg">
  <rect x="296.75" y="462.75" width="9.5" height="8.5" stroke="#48C9C0" stroke-width="1.5" />
  <rect x="21.75" y="105.75" width="9.5" height="8.5" stroke="#48C9C0" stroke-width="1.5" />
  <rect transform="rotate(45.68 356.22 293.63)" x="356.22" y="293.63" width="9.5" height="8.5" stroke="#48C9C0" stroke-width="1.5" />
  <circle cx="6" cy="313" r="5.25" stroke="#8BD2FF" stroke-width="1.5" />
  <circle cx="96" cy="6" r="5.25" stroke="#8BD2FF" stroke-width="1.5" />
  <path d="m189.23 73l5.271-10.348 5.271 10.348h-10.542z" stroke="#9768D1" stroke-width="1.5" />
  <path d="m34.02 564.54l-3.635-11.029 11.059 3.544-7.4241 7.485z" stroke="#9768D1" stroke-width="1.5" />
  <path d="m319.41 742.08l12.186-4.235-3.816 12.323-8.37-8.088z" stroke="#9768D1" stroke-width="1.5" />
  <path d="m87 682l-6.5-2-5.5 4.5 1.5 6.5 7 2 5-5-1.5-6z" stroke="#8BD2FF" stroke-width="1.5" />
  <path d="m156 487l-6.5-2-5.5 4.5 1.5 6.5 7 2 5-5-1.5-6z" stroke="#8BD2FF" stroke-width="1.5" />
  <path d="m358 128l-6.5-2-5.5 4.5 1.5 6.5 7 2 5-5-1.5-6z" stroke="#8BD2FF" stroke-width="1.5" />
</svg>
